# xmcd CD database file
#
# Track frame offsets:
#	150
#	15487
#	30142
#	40500
#	49405
#	65897
#	87525
#	98437
#	110822
#	122185
#	143205
#	169815
#	184167
#	198195
#	210275
#	224857
#	236860
#	249362
#
# Disc length: 3471 seconds
#
# Revision: 0
# Processed by: cddbd v1.4PL0 Copyright (c) Steve Scherf et al.
# Submitted via: CDex 1.50beta10
#
DISCID=030d8d12
DTITLE=Gene Roberts - Simply the bass
DYEAR=1900
DGENRE=Blues
TTITLE0=Deep River
TTITLE1=It ain't necessarily so
TTITLE2=whisper a prayer
TTITLE3=I'm goin' home
TTITLE4=Moon river
TTITLE5=Georgia on my mind
TTITLE6=sometimes I feel like a motherless child
TTITLE7=Peace in the valley
TTITLE8=Paper doll
TTITLE9=Sonny boy
TTITLE10=Ol' man river
TTITLE11=Summertime
TTITLE12=Danny boy
TTITLE13=What a wonderful world
TTITLE14=Kumbaya
TTITLE15=Swing low, sweet chariot
TTITLE16=Nobody knows the trouble I've seen
TTITLE17=We shall overcome
EXTD=
EXTT0=
EXTT1=
EXTT2=
EXTT3=
EXTT4=
EXTT5=
EXTT6=
EXTT7=
EXTT8=
EXTT9=
EXTT10=
EXTT11=
EXTT12=
EXTT13=
EXTT14=
EXTT15=
EXTT16=
EXTT17=
PLAYORDER=
